<svg xmlns="http://www.w3.org/2000/svg" version="1.0" width="200" height="200" viewBox="0 0 500 500">

<g transform="translate(0.000000,500.000000) scale(0.100000,-0.100000)" fill="#000000" stroke="none">
<path d="M1897 3493 c-4 -3 -7 -32 -7 -63 l0 -57 -36 -6 c-20 -3 -45 -14 -55 -23 -18 -16 -19 -40 -19 -473 0 -251 4 -461 8 -467 21 -33 49 -34 717 -34 l666 0 24 25 25 24 0 449 c0 509 3 488 -77 499 l-42 6 -3 61 -3 61 -240 3 c-263 3 -307 -4 -340 -54 l-16 -25 -21 27 c-40 50 -67 54 -331 54 -134 0 -247 -3 -250 -7z m524 -56 c58 -39 60 -55 57 -496 l-3 -396 -270 0 -270 0 -3 458 -2 457 228 0 c222 0 230 -1 263 -23z m639 -437 l0 -460 -270 0 -270 0 0 415 c0 358 2 420 16 446 27 53 55 58 302 59 l222 0 0 -460z m-1170 -74 c0 -328 3 -406 14 -415 9 -8 176 -10 602 -9 l589 3 3 408 c2 444 1 434 58 409 l24 -12 0 -438 c0 -327 -3 -441 -12 -450 -15 -15 -1314 -17 -1338 -2 -13 8 -15 70 -18 439 -3 421 -2 431 18 451 11 11 29 20 40 20 20 0 20 -7 20 -404z"/>
<path d="M2052 3273 c3 -16 20 -18 156 -21 147 -2 152 -2 152 18 0 19 -6 20 -156 20 -143 0 -155 -1 -152 -17z"/>
<path d="M2057 3144 c-4 -4 -7 -13 -7 -21 0 -10 33 -13 156 -13 143 0 155 1 152 18 -3 15 -19 17 -149 20 -80 1 -148 -1 -152 -4z"/>
<path d="M2057 3004 c-4 -4 -7 -13 -7 -21 0 -10 33 -13 156 -13 143 0 155 1 152 18 -3 15 -19 17 -149 20 -80 1 -148 -1 -152 -4z"/>
<path d="M2057 2864 c-4 -4 -7 -13 -7 -21 0 -10 33 -13 156 -13 143 0 155 1 152 18 -3 15 -19 17 -149 20 -80 1 -148 -1 -152 -4z"/>
<path d="M2052 2703 c3 -16 18 -18 153 -18 135 0 150 2 153 18 3 16 -9 17 -153 17 -144 0 -156 -1 -153 -17z"/>
<path d="M2635 3279 c-15 -24 17 -29 161 -27 125 3 149 5 149 18 0 13 -25 15 -152 18 -103 2 -154 -1 -158 -9z"/>
<path d="M2635 3139 c-15 -24 17 -29 161 -27 125 3 149 5 149 18 0 13 -25 15 -152 18 -103 2 -154 -1 -158 -9z"/>
<path d="M2635 2999 c-15 -24 17 -29 161 -27 125 3 149 5 149 18 0 13 -25 15 -152 18 -103 2 -154 -1 -158 -9z"/>
<path d="M2641 2861 c-35 -23 5 -31 149 -31 98 0 151 4 156 11 13 22 -23 29 -156 29 -74 0 -141 -4 -149 -9z"/>
<path d="M2634 2709 c-13 -22 23 -29 156 -29 133 0 169 7 156 29 -5 7 -58 11 -156 11 -98 0 -151 -4 -156 -11z"/>
<path d="M943 2199 c-184 -92 -120 -368 85 -369 l43 0 -3 38 c-3 35 -5 37 -43 43 -56 7 -80 23 -100 65 -35 74 10 149 97 160 l49 7 -3 36 c-3 34 -5 36 -43 39 -25 1 -55 -5 -82 -19z"/>
<path d="M1253 2199 c-184 -92 -120 -368 85 -369 l43 0 -3 38 c-3 35 -5 37 -43 43 -56 7 -80 23 -100 65 -35 74 10 149 97 160 l49 7 -3 36 c-3 34 -5 36 -43 39 -25 1 -55 -5 -82 -19z"/>
<path d="M1474 2207 c-2 -7 -3 -94 -2 -192 l3 -180 38 -3 37 -3 0 65 0 66 33 0 c44 0 77 19 104 59 45 67 18 155 -57 185 -49 20 -148 22 -156 3z m137 -77 c29 -16 25 -65 -6 -86 -39 -26 -55 -12 -55 46 0 44 3 50 21 50 11 0 29 -5 40 -10z"/>
<path d="M1968 2214 c-5 -4 -8 -92 -8 -196 l0 -188 34 0 c31 0 34 3 40 38 3 20 6 49 6 65 0 23 4 27 30 27 125 0 170 167 65 236 -27 18 -155 32 -167 18z m134 -91 c24 -21 23 -48 -2 -73 -43 -43 -73 -15 -62 59 5 36 33 42 64 14z"/>
<path d="M2270 2024 l0 -194 35 0 35 0 0 65 c0 65 0 65 28 65 41 0 52 -17 52 -78 l0 -53 38 3 c37 3 37 4 40 50 2 25 -4 62 -12 82 -13 31 -13 39 -1 63 19 37 19 87 -1 124 -20 40 -83 67 -156 67 l-58 0 0 -194z m131 106 c22 -12 26 -59 7 -78 -7 -7 -25 -12 -40 -12 -26 0 -28 3 -28 43 0 59 16 71 61 47z"/>
<path d="M2692 2210 c-18 -4 -45 -18 -59 -31 -44 -41 -53 -77 -53 -219 l0 -130 35 0 c34 0 35 1 35 40 0 39 1 40 35 40 34 0 35 -1 35 -40 l0 -40 40 0 40 0 0 189 c0 163 -2 190 -16 195 -20 7 -49 6 -92 -4z m28 -145 l0 -75 -36 0 -36 0 4 57 c4 43 10 61 28 75 12 10 26 18 31 18 5 0 9 -34 9 -75z"/>
<path d="M2990 2198 c-84 -43 -129 -146 -100 -232 26 -80 107 -140 183 -134 41 3 42 4 42 38 0 33 -2 35 -40 41 -57 7 -85 25 -102 66 -31 75 8 140 94 159 46 10 48 11 48 45 0 33 -2 34 -40 37 -26 2 -55 -5 -85 -20z"/>
<path d="M3210 2206 c-20 -26 -8 -61 22 -64 l27 -3 3 -152 3 -152 35 0 35 0 5 150 5 150 28 3 c23 3 27 8 27 36 0 40 -14 46 -111 46 -46 0 -70 -4 -79 -14z"/>
<path d="M3494 2207 c-2 -7 -3 -94 -2 -192 l3 -180 35 0 35 0 3 184 c2 141 -1 186 -10 193 -20 12 -58 9 -64 -5z"/>
<path d="M3765 2201 c-79 -37 -115 -91 -117 -176 -3 -104 85 -195 189 -195 l44 0 -3 37 c-3 36 -5 38 -47 45 -53 9 -88 39 -101 86 -18 69 28 128 110 139 39 5 40 7 40 44 0 38 -1 39 -37 39 -21 0 -56 -9 -78 -19z"/>
<path d="M4080 2207 c-74 -39 -110 -84 -124 -156 -18 -96 75 -220 167 -221 24 0 27 3 27 35 0 31 -4 36 -44 54 -24 10 -49 29 -55 40 -11 20 -9 21 32 21 50 0 70 16 65 52 -3 20 -10 23 -48 26 -25 2 -49 7 -53 11 -12 12 43 62 75 68 25 5 28 10 28 44 0 34 -3 39 -22 39 -13 0 -34 -6 -48 -13z"/>
</g>
</svg>